<mxfile host="65bd71144e">
    <diagram id="Mq3561HPTzW52WDUHC1R" name="Page-1">
        <mxGraphModel dx="812" dy="672" grid="1" gridSize="10" guides="1" tooltips="1" connect="1" arrows="1" fold="1" page="1" pageScale="1" pageWidth="850" pageHeight="1100" math="0" shadow="0">
            <root>
                <mxCell id="0"/>
                <mxCell id="1" parent="0"/>
                <mxCell id="3" value="Pandanim" style="shape=umlFrame;whiteSpace=wrap;html=1;width=140;height=30;" parent="1" vertex="1">
                    <mxGeometry x="120" y="41" width="640" height="959" as="geometry"/>
                </mxCell>
                <mxCell id="4" value="Futur membre" style="shape=umlActor;verticalLabelPosition=bottom;verticalAlign=top;html=1;" parent="1" vertex="1">
                    <mxGeometry x="44" y="119" width="30" height="60" as="geometry"/>
                </mxCell>
                <mxCell id="5" value="Membre connecté&amp;nbsp;" style="shape=umlActor;verticalLabelPosition=bottom;verticalAlign=top;html=1;" parent="1" vertex="1">
                    <mxGeometry x="44" y="360" width="30" height="60" as="geometry"/>
                </mxCell>
                <mxCell id="7" value="Visiteur" style="shape=umlActor;verticalLabelPosition=bottom;verticalAlign=top;html=1;" parent="1" vertex="1">
                    <mxGeometry x="44" y="239" width="30" height="60" as="geometry"/>
                </mxCell>
                <mxCell id="9" value="" style="line;strokeWidth=1;fillColor=none;align=left;verticalAlign=middle;spacingTop=-1;spacingLeft=3;spacingRight=3;rotatable=0;labelPosition=right;points=[];portConstraint=eastwest;" parent="1" vertex="1">
                    <mxGeometry x="60" y="155" width="130" height="8" as="geometry"/>
                </mxCell>
                <mxCell id="10" value="Créer un compte" style="ellipse;whiteSpace=wrap;html=1;" parent="1" vertex="1">
                    <mxGeometry x="190" y="121" width="140" height="70" as="geometry"/>
                </mxCell>
                <mxCell id="11" value="" style="endArrow=open;endFill=1;endSize=12;html=1;exitX=0.5;exitY=0;exitDx=0;exitDy=0;exitPerimeter=0;" parent="1" source="5" target="7" edge="1">
                    <mxGeometry width="160" relative="1" as="geometry">
                        <mxPoint x="60" y="269" as="sourcePoint"/>
                        <mxPoint x="60" y="239" as="targetPoint"/>
                    </mxGeometry>
                </mxCell>
                <mxCell id="12" value="" style="endArrow=open;endFill=1;endSize=12;html=1;entryX=0.5;entryY=0;entryDx=0;entryDy=0;entryPerimeter=0;" parent="1" source="4" target="7" edge="1">
                    <mxGeometry width="160" relative="1" as="geometry">
                        <mxPoint x="20" y="250" as="sourcePoint"/>
                        <mxPoint x="59" y="220" as="targetPoint"/>
                    </mxGeometry>
                </mxCell>
                <mxCell id="13" value="API Jikan &lt;br&gt;&amp;lt;&amp;lt;Secondary&amp;gt;&amp;gt;" style="shape=umlActor;verticalLabelPosition=bottom;verticalAlign=top;html=1;" parent="1" vertex="1">
                    <mxGeometry x="790" y="355" width="30" height="60" as="geometry"/>
                </mxCell>
                <mxCell id="14" value="&amp;lt;&amp;lt;Includes&amp;gt;&amp;gt;" style="endArrow=open;endSize=12;dashed=1;html=1;fontStyle=0;entryX=0;entryY=0.5;entryDx=0;entryDy=0;exitX=1;exitY=0.5;exitDx=0;exitDy=0;" parent="1" source="10" target="15" edge="1">
                    <mxGeometry width="160" relative="1" as="geometry">
                        <mxPoint x="265" y="250" as="sourcePoint"/>
                        <mxPoint x="425" y="250" as="targetPoint"/>
                    </mxGeometry>
                </mxCell>
                <mxCell id="15" value="Envoyer une confirmation par mail" style="ellipse;whiteSpace=wrap;html=1;" parent="1" vertex="1">
                    <mxGeometry x="470" y="121" width="140" height="70" as="geometry"/>
                </mxCell>
                <mxCell id="20" style="edgeStyle=orthogonalEdgeStyle;html=1;entryX=0.448;entryY=0.667;entryDx=0;entryDy=0;entryPerimeter=0;endArrow=none;endFill=0;exitX=0;exitY=0.5;exitDx=0;exitDy=0;" parent="1" source="16" target="4" edge="1">
                    <mxGeometry relative="1" as="geometry">
                        <Array as="points">
                            <mxPoint x="330" y="235"/>
                            <mxPoint x="160" y="235"/>
                            <mxPoint x="160" y="159"/>
                        </Array>
                    </mxGeometry>
                </mxCell>
                <mxCell id="16" value="Valider son compte" style="ellipse;whiteSpace=wrap;html=1;" parent="1" vertex="1">
                    <mxGeometry x="330" y="192" width="140" height="70" as="geometry"/>
                </mxCell>
                <mxCell id="21" value="Parcourir, filtrer les Animés" style="ellipse;whiteSpace=wrap;html=1;" parent="1" vertex="1">
                    <mxGeometry x="330" y="270" width="140" height="70" as="geometry"/>
                </mxCell>
                <mxCell id="23" style="edgeStyle=orthogonalEdgeStyle;html=1;entryX=0.5;entryY=0.5;entryDx=0;entryDy=0;entryPerimeter=0;endArrow=none;endFill=0;exitX=0;exitY=0.5;exitDx=0;exitDy=0;" parent="1" source="21" target="7" edge="1">
                    <mxGeometry relative="1" as="geometry">
                        <mxPoint x="340" y="245" as="sourcePoint"/>
                        <mxPoint x="67.43999999999994" y="169.0200000000001" as="targetPoint"/>
                        <Array as="points">
                            <mxPoint x="170" y="305"/>
                            <mxPoint x="170" y="280"/>
                            <mxPoint x="59" y="280"/>
                        </Array>
                    </mxGeometry>
                </mxCell>
                <mxCell id="24" value="Voter pour un Animé" style="ellipse;whiteSpace=wrap;html=1;" parent="1" vertex="1">
                    <mxGeometry x="440" y="355" width="140" height="70" as="geometry"/>
                </mxCell>
                <mxCell id="25" style="edgeStyle=orthogonalEdgeStyle;html=1;endArrow=none;endFill=0;exitX=0;exitY=0.5;exitDx=0;exitDy=0;" parent="1" source="24" edge="1">
                    <mxGeometry relative="1" as="geometry">
                        <mxPoint x="500.0000000000002" y="556" as="sourcePoint"/>
                        <mxPoint x="290" y="390" as="targetPoint"/>
                        <Array as="points">
                            <mxPoint x="380" y="390"/>
                        </Array>
                    </mxGeometry>
                </mxCell>
                <mxCell id="26" value="Commenter un Animé" style="ellipse;whiteSpace=wrap;html=1;" parent="1" vertex="1">
                    <mxGeometry x="440" y="440" width="140" height="70" as="geometry"/>
                </mxCell>
                <mxCell id="27" style="edgeStyle=orthogonalEdgeStyle;html=1;endArrow=none;endFill=0;exitX=0;exitY=0.5;exitDx=0;exitDy=0;" parent="1" source="26" edge="1">
                    <mxGeometry relative="1" as="geometry">
                        <mxPoint x="409.0000000000002" y="470" as="sourcePoint"/>
                        <mxPoint x="309" y="450" as="targetPoint"/>
                        <Array as="points">
                            <mxPoint x="309" y="545"/>
                            <mxPoint x="309" y="460"/>
                        </Array>
                    </mxGeometry>
                </mxCell>
                <mxCell id="28" value="Modifier, supprimer son compte" style="ellipse;whiteSpace=wrap;html=1;" parent="1" vertex="1">
                    <mxGeometry x="440" y="630" width="140" height="70" as="geometry"/>
                </mxCell>
                <mxCell id="29" style="edgeStyle=orthogonalEdgeStyle;html=1;endArrow=none;endFill=0;exitX=0;exitY=0.5;exitDx=0;exitDy=0;entryX=0.5;entryY=0.5;entryDx=0;entryDy=0;entryPerimeter=0;" parent="1" source="28" edge="1" target="5">
                    <mxGeometry relative="1" as="geometry">
                        <mxPoint x="409.0000000000002" y="555" as="sourcePoint"/>
                        <mxPoint x="129" y="460" as="targetPoint"/>
                        <Array as="points">
                            <mxPoint x="309" y="665"/>
                            <mxPoint x="309" y="390"/>
                        </Array>
                    </mxGeometry>
                </mxCell>
                <mxCell id="31" style="edgeStyle=orthogonalEdgeStyle;html=1;entryX=1;entryY=0.5;entryDx=0;entryDy=0;endArrow=none;endFill=0;exitX=0.5;exitY=0.5;exitDx=0;exitDy=0;exitPerimeter=0;" parent="1" target="32" edge="1">
                    <mxGeometry relative="1" as="geometry">
                        <mxPoint x="805" y="390" as="sourcePoint"/>
                        <mxPoint x="470" y="310" as="targetPoint"/>
                        <Array as="points">
                            <mxPoint x="805" y="395"/>
                            <mxPoint x="700" y="395"/>
                            <mxPoint x="700" y="580"/>
                            <mxPoint x="580" y="580"/>
                        </Array>
                    </mxGeometry>
                </mxCell>
                <mxCell id="32" value="Voir le détail d'un Animé" style="ellipse;whiteSpace=wrap;html=1;" vertex="1" parent="1">
                    <mxGeometry x="440" y="540" width="140" height="70" as="geometry"/>
                </mxCell>
                <mxCell id="35" style="edgeStyle=orthogonalEdgeStyle;html=1;endArrow=none;endFill=0;exitX=0;exitY=0.5;exitDx=0;exitDy=0;" edge="1" parent="1" source="32">
                    <mxGeometry relative="1" as="geometry">
                        <mxPoint x="450" y="485" as="sourcePoint"/>
                        <mxPoint x="310" y="580" as="targetPoint"/>
                        <Array as="points">
                            <mxPoint x="440" y="580"/>
                        </Array>
                    </mxGeometry>
                </mxCell>
                <mxCell id="36" value="Administrateur" style="shape=umlActor;verticalLabelPosition=bottom;verticalAlign=top;html=1;" vertex="1" parent="1">
                    <mxGeometry x="44" y="510" width="30" height="60" as="geometry"/>
                </mxCell>
                <mxCell id="37" value="" style="endArrow=open;endFill=1;endSize=12;html=1;exitX=0.5;exitY=0;exitDx=0;exitDy=0;exitPerimeter=0;entryX=0.483;entryY=0.833;entryDx=0;entryDy=0;entryPerimeter=0;" edge="1" parent="1" source="36" target="5">
                    <mxGeometry width="160" relative="1" as="geometry">
                        <mxPoint x="58.5" y="505.5" as="sourcePoint"/>
                        <mxPoint x="58.5" y="444.5" as="targetPoint"/>
                    </mxGeometry>
                </mxCell>
                <mxCell id="38" value="Gérer les actions des membres" style="ellipse;whiteSpace=wrap;html=1;" vertex="1" parent="1">
                    <mxGeometry x="440" y="727" width="140" height="70" as="geometry"/>
                </mxCell>
                <mxCell id="39" style="edgeStyle=orthogonalEdgeStyle;html=1;endArrow=none;endFill=0;entryX=0.5;entryY=0.5;entryDx=0;entryDy=0;entryPerimeter=0;exitX=0;exitY=0.5;exitDx=0;exitDy=0;" edge="1" parent="1" source="38" target="36">
                    <mxGeometry relative="1" as="geometry">
                        <mxPoint x="400" y="760" as="sourcePoint"/>
                        <mxPoint x="74" y="550" as="targetPoint"/>
                        <Array as="points">
                            <mxPoint x="440" y="760"/>
                            <mxPoint x="160" y="760"/>
                            <mxPoint x="160" y="540"/>
                        </Array>
                    </mxGeometry>
                </mxCell>
                <mxCell id="40" style="edgeStyle=orthogonalEdgeStyle;html=1;entryX=1;entryY=0.5;entryDx=0;entryDy=0;endArrow=none;endFill=0;exitX=0.5;exitY=0.5;exitDx=0;exitDy=0;exitPerimeter=0;" edge="1" parent="1">
                    <mxGeometry relative="1" as="geometry">
                        <mxPoint x="805" y="390" as="sourcePoint"/>
                        <mxPoint x="470" y="310" as="targetPoint"/>
                        <Array as="points">
                            <mxPoint x="700" y="395"/>
                            <mxPoint x="700" y="310"/>
                        </Array>
                    </mxGeometry>
                </mxCell>
                <mxCell id="41" value="A partir d'ici Il faut être authentifié&lt;br&gt;&amp;nbsp;pour&lt;br&gt;&amp;nbsp;utiliser&amp;nbsp;les fonctions du site *" style="html=1;dropTarget=0;" vertex="1" parent="1">
                    <mxGeometry x="550" y="890" width="190" height="90" as="geometry"/>
                </mxCell>
                <mxCell id="42" value="" style="shape=module;jettyWidth=8;jettyHeight=4;" vertex="1" parent="41">
                    <mxGeometry x="1" width="20" height="20" relative="1" as="geometry">
                        <mxPoint x="-27" y="7" as="offset"/>
                    </mxGeometry>
                </mxCell>
                <mxCell id="44" value="*" style="text;align=center;fontStyle=1;verticalAlign=middle;spacingLeft=3;spacingRight=3;strokeColor=none;rotatable=0;points=[[0,0.5],[1,0.5]];portConstraint=eastwest;" vertex="1" parent="1">
                    <mxGeometry x="550" y="350" width="80" height="26" as="geometry"/>
                </mxCell>
            </root>
        </mxGraphModel>
    </diagram>
</mxfile>